<?xml version="1.0" encoding="us-ascii" standalone="no"?><svg xmlns="http://www.w3.org/2000/svg" xmlns:xlink="http://www.w3.org/1999/xlink" contentStyleType="text/css" height="834px" preserveAspectRatio="none" style="width:987px;height:834px;background:#FFFFFF;" version="1.1" viewBox="0 0 987 834" width="987px" zoomAndPan="magnify"><defs/><g><!--class MenuTestDrive--><g id="elem_MenuTestDrive"><rect codeLine="3" fill="#F1F1F1" height="56.4883" id="MenuTestDrive" rx="2.5" ry="2.5" style="stroke:#181818;stroke-width:0.5;" width="196" x="322.5" y="15.24"/><ellipse cx="365.4" cy="31.24" fill="#ADD1B2" rx="11" ry="11" style="stroke:#181818;stroke-width:1.0;"/><path d="M367.8731,37.3831 Q367.2921,37.6819 366.6529,37.8313 Q366.0138,37.9807 365.3082,37.9807 Q362.8014,37.9807 361.4815,36.3289 Q360.1617,34.677 360.1617,31.5559 Q360.1617,28.4265 361.4815,26.7747 Q362.8014,25.1228 365.3082,25.1228 Q366.0138,25.1228 366.6612,25.2722 Q367.3087,25.4216 367.8731,25.7205 L367.8731,28.4431 Q367.2423,27.8621 366.6488,27.5923 Q366.0553,27.3225 365.4244,27.3225 Q364.0797,27.3225 363.3949,28.3892 Q362.7101,29.4558 362.7101,31.5559 Q362.7101,33.6477 363.3949,34.7144 Q364.0797,35.781 365.4244,35.781 Q366.0553,35.781 366.6488,35.5112 Q367.2423,35.2415 367.8731,34.6604 Z " fill="#000000"/><text fill="#000000" font-family="sans-serif" font-size="14" lengthAdjust="spacing" textLength="102" x="385.6" y="36.531">MenuTestDrive</text><line style="stroke:#181818;stroke-width:0.5;" x1="323.5" x2="517.5" y1="47.24" y2="47.24"/><ellipse cx="333.5" cy="60.9841" fill="#84BE84" rx="3" ry="3" style="stroke:#038048;stroke-width:1.0;"/><text fill="#000000" font-family="sans-serif" font-size="14" lengthAdjust="spacing" text-decoration="underline" textLength="170" x="342.5" y="64.7752">main(args: String[]): void</text></g><!--class Menu--><g id="elem_Menu"><rect codeLine="7" fill="#F1F1F1" height="229.3711" id="Menu" rx="2.5" ry="2.5" style="stroke:#181818;stroke-width:0.5;" width="371" x="7" y="597.81"/><ellipse cx="169.25" cy="613.81" fill="#ADD1B2" rx="11" ry="11" style="stroke:#181818;stroke-width:1.0;"/><path d="M171.7231,619.9531 Q171.1421,620.2519 170.5029,620.4013 Q169.8638,620.5507 169.1582,620.5507 Q166.6514,620.5507 165.3315,618.8989 Q164.0117,617.247 164.0117,614.1259 Q164.0117,610.9965 165.3315,609.3447 Q166.6514,607.6928 169.1582,607.6928 Q169.8638,607.6928 170.5112,607.8422 Q171.1587,607.9916 171.7231,608.2905 L171.7231,611.0131 Q171.0923,610.4321 170.4988,610.1623 Q169.9053,609.8925 169.2744,609.8925 Q167.9297,609.8925 167.2449,610.9592 Q166.5601,612.0258 166.5601,614.1259 Q166.5601,616.2177 167.2449,617.2844 Q167.9297,618.351 169.2744,618.351 Q169.9053,618.351 170.4988,618.0812 Q171.0923,617.8115 171.7231,617.2304 Z " fill="#000000"/><text fill="#000000" font-family="sans-serif" font-size="14" lengthAdjust="spacing" textLength="38" x="189.75" y="619.101">Menu</text><line style="stroke:#181818;stroke-width:0.5;" x1="8" x2="377" y1="629.81" y2="629.81"/><rect fill="none" height="6" style="stroke:#C82930;stroke-width:1.0;" width="6" x="15" y="640.5541"/><text fill="#000000" font-family="sans-serif" font-size="14" lengthAdjust="spacing" textLength="87" x="27" y="647.3452">name: String</text><rect fill="none" height="6" style="stroke:#C82930;stroke-width:1.0;" width="6" x="15" y="657.0424"/><text fill="#000000" font-family="sans-serif" font-size="14" lengthAdjust="spacing" textLength="126" x="27" y="663.8334">description: String</text><rect fill="none" height="6" style="stroke:#C82930;stroke-width:1.0;" width="6" x="15" y="673.5307"/><text fill="#000000" font-family="sans-serif" font-size="14" lengthAdjust="spacing" textLength="299" x="27" y="680.3217">menuComponents: List&lt;MenuComponent&gt;</text><line style="stroke:#181818;stroke-width:0.5;" x1="8" x2="377" y1="687.2748" y2="687.2748"/><ellipse cx="18" cy="701.019" fill="#84BE84" rx="3" ry="3" style="stroke:#038048;stroke-width:1.0;"/><text fill="#000000" font-family="sans-serif" font-size="14" lengthAdjust="spacing" textLength="269" x="27" y="704.81">Menu(name: String, description: String)</text><ellipse cx="18" cy="717.5073" fill="#84BE84" rx="3" ry="3" style="stroke:#038048;stroke-width:1.0;"/><text fill="#000000" font-family="sans-serif" font-size="14" lengthAdjust="spacing" textLength="320" x="27" y="721.2983">add(menuComponent: MenuComponent): void</text><ellipse cx="18" cy="733.9955" fill="#84BE84" rx="3" ry="3" style="stroke:#038048;stroke-width:1.0;"/><text fill="#000000" font-family="sans-serif" font-size="14" lengthAdjust="spacing" textLength="345" x="27" y="737.7866">remove(menuComponent: MenuComponent): void</text><ellipse cx="18" cy="750.4838" fill="#84BE84" rx="3" ry="3" style="stroke:#038048;stroke-width:1.0;"/><text fill="#000000" font-family="sans-serif" font-size="14" lengthAdjust="spacing" textLength="229" x="27" y="754.2748">getChild(k: int): MenuComponent</text><ellipse cx="18" cy="766.9721" fill="#84BE84" rx="3" ry="3" style="stroke:#038048;stroke-width:1.0;"/><text fill="#000000" font-family="sans-serif" font-size="14" lengthAdjust="spacing" textLength="120" x="27" y="770.7631">getName(): String</text><ellipse cx="18" cy="783.4604" fill="#84BE84" rx="3" ry="3" style="stroke:#038048;stroke-width:1.0;"/><text fill="#000000" font-family="sans-serif" font-size="14" lengthAdjust="spacing" textLength="159" x="27" y="787.2514">getDescription(): String</text><ellipse cx="18" cy="799.9487" fill="#84BE84" rx="3" ry="3" style="stroke:#038048;stroke-width:1.0;"/><text fill="#000000" font-family="sans-serif" font-size="14" lengthAdjust="spacing" textLength="80" x="27" y="803.7397">print(): void</text><ellipse cx="18" cy="816.437" fill="#84BE84" rx="3" ry="3" style="stroke:#038048;stroke-width:1.0;"/><text fill="#000000" font-family="sans-serif" font-size="14" lengthAdjust="spacing" textLength="185" x="27" y="820.228">accept(visitor: Visitor): void</text></g><!--class MenuItem--><g id="elem_MenuItem"><rect codeLine="22" fill="#F1F1F1" height="229.3711" id="MenuItem" rx="2.5" ry="2.5" style="stroke:#181818;stroke-width:0.5;" width="567" x="413" y="597.81"/><ellipse cx="658.25" cy="613.81" fill="#ADD1B2" rx="11" ry="11" style="stroke:#181818;stroke-width:1.0;"/><path d="M660.7231,619.9531 Q660.1421,620.2519 659.5029,620.4013 Q658.8638,620.5507 658.1582,620.5507 Q655.6514,620.5507 654.3315,618.8989 Q653.0117,617.247 653.0117,614.1259 Q653.0117,610.9965 654.3315,609.3447 Q655.6514,607.6928 658.1582,607.6928 Q658.8638,607.6928 659.5112,607.8422 Q660.1587,607.9916 660.7231,608.2905 L660.7231,611.0131 Q660.0923,610.4321 659.4988,610.1623 Q658.9053,609.8925 658.2744,609.8925 Q656.9297,609.8925 656.2449,610.9592 Q655.5601,612.0258 655.5601,614.1259 Q655.5601,616.2177 656.2449,617.2844 Q656.9297,618.351 658.2744,618.351 Q658.9053,618.351 659.4988,618.0812 Q660.0923,617.8115 660.7231,617.2304 Z " fill="#000000"/><text fill="#000000" font-family="sans-serif" font-size="14" lengthAdjust="spacing" textLength="68" x="678.75" y="619.101">MenuItem</text><line style="stroke:#181818;stroke-width:0.5;" x1="414" x2="979" y1="629.81" y2="629.81"/><rect fill="none" height="6" style="stroke:#C82930;stroke-width:1.0;" width="6" x="421" y="640.5541"/><text fill="#000000" font-family="sans-serif" font-size="14" lengthAdjust="spacing" textLength="87" x="433" y="647.3452">name: String</text><rect fill="none" height="6" style="stroke:#C82930;stroke-width:1.0;" width="6" x="421" y="657.0424"/><text fill="#000000" font-family="sans-serif" font-size="14" lengthAdjust="spacing" textLength="126" x="433" y="663.8334">description: String</text><rect fill="none" height="6" style="stroke:#C82930;stroke-width:1.0;" width="6" x="421" y="673.5307"/><text fill="#000000" font-family="sans-serif" font-size="14" lengthAdjust="spacing" textLength="136" x="433" y="680.3217">vegetarian: boolean</text><rect fill="none" height="6" style="stroke:#C82930;stroke-width:1.0;" width="6" x="421" y="690.019"/><text fill="#000000" font-family="sans-serif" font-size="14" lengthAdjust="spacing" textLength="90" x="433" y="696.81">price: double</text><line style="stroke:#181818;stroke-width:0.5;" x1="414" x2="979" y1="703.7631" y2="703.7631"/><ellipse cx="424" cy="717.5073" fill="#84BE84" rx="3" ry="3" style="stroke:#038048;stroke-width:1.0;"/><text fill="#000000" font-family="sans-serif" font-size="14" lengthAdjust="spacing" textLength="541" x="433" y="721.2983">MenuItem(name: String, description: String, vegetarian: boolean, price: double)</text><ellipse cx="424" cy="733.9955" fill="#84BE84" rx="3" ry="3" style="stroke:#038048;stroke-width:1.0;"/><text fill="#000000" font-family="sans-serif" font-size="14" lengthAdjust="spacing" textLength="120" x="433" y="737.7866">getName(): String</text><ellipse cx="424" cy="750.4838" fill="#84BE84" rx="3" ry="3" style="stroke:#038048;stroke-width:1.0;"/><text fill="#000000" font-family="sans-serif" font-size="14" lengthAdjust="spacing" textLength="159" x="433" y="754.2748">getDescription(): String</text><ellipse cx="424" cy="766.9721" fill="#84BE84" rx="3" ry="3" style="stroke:#038048;stroke-width:1.0;"/><text fill="#000000" font-family="sans-serif" font-size="14" lengthAdjust="spacing" textLength="121" x="433" y="770.7631">getPrice(): double</text><ellipse cx="424" cy="783.4604" fill="#84BE84" rx="3" ry="3" style="stroke:#038048;stroke-width:1.0;"/><text fill="#000000" font-family="sans-serif" font-size="14" lengthAdjust="spacing" textLength="159" x="433" y="787.2514">isVegetarian(): boolean</text><ellipse cx="424" cy="799.9487" fill="#84BE84" rx="3" ry="3" style="stroke:#038048;stroke-width:1.0;"/><text fill="#000000" font-family="sans-serif" font-size="14" lengthAdjust="spacing" textLength="80" x="433" y="803.7397">print(): void</text><ellipse cx="424" cy="816.437" fill="#84BE84" rx="3" ry="3" style="stroke:#038048;stroke-width:1.0;"/><text fill="#000000" font-family="sans-serif" font-size="14" lengthAdjust="spacing" textLength="185" x="433" y="820.228">accept(visitor: Visitor): void</text></g><!--class Waitress--><g id="elem_Waitress"><rect codeLine="36" fill="#F1F1F1" height="97.4648" id="Waitress" rx="2.5" ry="2.5" style="stroke:#181818;stroke-width:0.5;" width="281" x="69" y="173.46"/><ellipse cx="176.75" cy="189.46" fill="#ADD1B2" rx="11" ry="11" style="stroke:#181818;stroke-width:1.0;"/><path d="M179.2231,195.6031 Q178.6421,195.9019 178.0029,196.0513 Q177.3638,196.2007 176.6582,196.2007 Q174.1514,196.2007 172.8315,194.5489 Q171.5117,192.897 171.5117,189.7759 Q171.5117,186.6465 172.8315,184.9947 Q174.1514,183.3428 176.6582,183.3428 Q177.3638,183.3428 178.0112,183.4922 Q178.6587,183.6416 179.2231,183.9405 L179.2231,186.6631 Q178.5923,186.0821 177.9988,185.8123 Q177.4053,185.5425 176.7744,185.5425 Q175.4297,185.5425 174.7449,186.6092 Q174.0601,187.6758 174.0601,189.7759 Q174.0601,191.8677 174.7449,192.9344 Q175.4297,194.001 176.7744,194.001 Q177.4053,194.001 177.9988,193.7312 Q178.5923,193.4615 179.2231,192.8804 Z " fill="#000000"/><text fill="#000000" font-family="sans-serif" font-size="14" lengthAdjust="spacing" textLength="57" x="197.25" y="194.751">Waitress</text><line style="stroke:#181818;stroke-width:0.5;" x1="70" x2="349" y1="205.46" y2="205.46"/><rect fill="none" height="6" style="stroke:#C82930;stroke-width:1.0;" width="6" x="77" y="216.2041"/><text fill="#000000" font-family="sans-serif" font-size="14" lengthAdjust="spacing" textLength="188" x="89" y="222.9952">allMenus: MenuComponent</text><line style="stroke:#181818;stroke-width:0.5;" x1="70" x2="349" y1="229.9483" y2="229.9483"/><ellipse cx="80" cy="243.6924" fill="#84BE84" rx="3" ry="3" style="stroke:#038048;stroke-width:1.0;"/><text fill="#000000" font-family="sans-serif" font-size="14" lengthAdjust="spacing" textLength="255" x="89" y="247.4834">Waitress(allMenus: MenuComponent)</text><ellipse cx="80" cy="260.1807" fill="#84BE84" rx="3" ry="3" style="stroke:#038048;stroke-width:1.0;"/><text fill="#000000" font-family="sans-serif" font-size="14" lengthAdjust="spacing" textLength="118" x="89" y="263.9717">printMenu(): void</text></g><!--class MenuComponent--><g id="elem_MenuComponent"><rect codeLine="43" fill="#F1F1F1" height="188.3945" id="MenuComponent" rx="2.5" ry="2.5" style="stroke:#181818;stroke-width:0.5;" width="371" x="24" y="348.41"/><ellipse cx="145.75" cy="364.41" fill="#A9DCDF" rx="11" ry="11" style="stroke:#181818;stroke-width:1.0;"/><path d="M145.6133,359.7581 L144.4595,364.8299 L146.7754,364.8299 Z M144.1191,357.5169 L147.1157,357.5169 L150.4609,369.91 L148.0122,369.91 L147.2485,366.847 L143.9697,366.847 L143.2227,369.91 L140.7739,369.91 Z " fill="#000000"/><text fill="#000000" font-family="sans-serif" font-size="14" font-style="italic" lengthAdjust="spacing" textLength="119" x="166.25" y="369.701">MenuComponent</text><line style="stroke:#181818;stroke-width:0.5;" x1="25" x2="394" y1="380.41" y2="380.41"/><ellipse cx="35" cy="394.1541" fill="#84BE84" rx="3" ry="3" style="stroke:#038048;stroke-width:1.0;"/><text fill="#000000" font-family="sans-serif" font-size="14" lengthAdjust="spacing" textLength="320" x="44" y="397.9452">add(menuComponent: MenuComponent): void</text><ellipse cx="35" cy="410.6424" fill="#84BE84" rx="3" ry="3" style="stroke:#038048;stroke-width:1.0;"/><text fill="#000000" font-family="sans-serif" font-size="14" lengthAdjust="spacing" textLength="345" x="44" y="414.4334">remove(menuComponent: MenuComponent): void</text><ellipse cx="35" cy="427.1307" fill="#84BE84" rx="3" ry="3" style="stroke:#038048;stroke-width:1.0;"/><text fill="#000000" font-family="sans-serif" font-size="14" lengthAdjust="spacing" textLength="229" x="44" y="430.9217">getChild(k: int): MenuComponent</text><ellipse cx="35" cy="443.619" fill="#84BE84" rx="3" ry="3" style="stroke:#038048;stroke-width:1.0;"/><text fill="#000000" font-family="sans-serif" font-size="14" lengthAdjust="spacing" textLength="120" x="44" y="447.41">getName(): String</text><ellipse cx="35" cy="460.1073" fill="#84BE84" rx="3" ry="3" style="stroke:#038048;stroke-width:1.0;"/><text fill="#000000" font-family="sans-serif" font-size="14" lengthAdjust="spacing" textLength="159" x="44" y="463.8983">getDescription(): String</text><ellipse cx="35" cy="476.5955" fill="#84BE84" rx="3" ry="3" style="stroke:#038048;stroke-width:1.0;"/><text fill="#000000" font-family="sans-serif" font-size="14" lengthAdjust="spacing" textLength="121" x="44" y="480.3866">getPrice(): double</text><ellipse cx="35" cy="493.0838" fill="#84BE84" rx="3" ry="3" style="stroke:#038048;stroke-width:1.0;"/><text fill="#000000" font-family="sans-serif" font-size="14" lengthAdjust="spacing" textLength="159" x="44" y="496.8748">isVegetarian(): boolean</text><ellipse cx="35" cy="509.5721" fill="#84BE84" rx="3" ry="3" style="stroke:#038048;stroke-width:1.0;"/><text fill="#000000" font-family="sans-serif" font-size="14" lengthAdjust="spacing" textLength="80" x="44" y="513.3631">print(): void</text><ellipse cx="35" cy="526.0604" fill="#84BE84" rx="3" ry="3" style="stroke:#038048;stroke-width:1.0;"/><text fill="#000000" font-family="sans-serif" font-size="14" font-style="italic" lengthAdjust="spacing" textLength="185" x="44" y="529.8514">accept(visitor: Visitor): void</text></g><!--class VegetarianVisitor--><g id="elem_VegetarianVisitor"><rect codeLine="55" fill="#F1F1F1" height="130.4414" id="VegetarianVisitor" rx="2.5" ry="2.5" style="stroke:#181818;stroke-width:0.5;" width="290" x="545.5" y="156.97"/><ellipse cx="627.25" cy="172.97" fill="#ADD1B2" rx="11" ry="11" style="stroke:#181818;stroke-width:1.0;"/><path d="M629.7231,179.1131 Q629.1421,179.4119 628.5029,179.5613 Q627.8638,179.7107 627.1582,179.7107 Q624.6514,179.7107 623.3315,178.0589 Q622.0117,176.407 622.0117,173.2859 Q622.0117,170.1565 623.3315,168.5047 Q624.6514,166.8528 627.1582,166.8528 Q627.8638,166.8528 628.5112,167.0022 Q629.1587,167.1516 629.7231,167.4505 L629.7231,170.1731 Q629.0923,169.5921 628.4988,169.3223 Q627.9053,169.0525 627.2744,169.0525 Q625.9297,169.0525 625.2449,170.1192 Q624.5601,171.1858 624.5601,173.2859 Q624.5601,175.3777 625.2449,176.4444 Q625.9297,177.511 627.2744,177.511 Q627.9053,177.511 628.4988,177.2412 Q629.0923,176.9715 629.7231,176.3904 Z " fill="#000000"/><text fill="#000000" font-family="sans-serif" font-size="14" lengthAdjust="spacing" textLength="118" x="647.75" y="178.261">VegetarianVisitor</text><line style="stroke:#181818;stroke-width:0.5;" x1="546.5" x2="834.5" y1="188.97" y2="188.97"/><rect fill="none" height="6" style="stroke:#C82930;stroke-width:1.0;" width="6" x="553.5" y="199.7141"/><text fill="#000000" font-family="sans-serif" font-size="14" lengthAdjust="spacing" textLength="230" x="565.5" y="206.5052">vegetarianItems: List&lt;MenuItem&gt;</text><line style="stroke:#181818;stroke-width:0.5;" x1="546.5" x2="834.5" y1="213.4583" y2="213.4583"/><ellipse cx="556.5" cy="227.2024" fill="#84BE84" rx="3" ry="3" style="stroke:#038048;stroke-width:1.0;"/><text fill="#000000" font-family="sans-serif" font-size="14" lengthAdjust="spacing" textLength="128" x="565.5" y="230.9934">VegetarianVisitor()</text><ellipse cx="556.5" cy="243.6907" fill="#84BE84" rx="3" ry="3" style="stroke:#038048;stroke-width:1.0;"/><text fill="#000000" font-family="sans-serif" font-size="14" lengthAdjust="spacing" textLength="264" x="565.5" y="247.4817">getVegetarianItems(): List&lt;MenuItem&gt;</text><ellipse cx="556.5" cy="260.179" fill="#84BE84" rx="3" ry="3" style="stroke:#038048;stroke-width:1.0;"/><text fill="#000000" font-family="sans-serif" font-size="14" lengthAdjust="spacing" textLength="159" x="565.5" y="263.97">visit(menu: Menu): void</text><ellipse cx="556.5" cy="276.6673" fill="#84BE84" rx="3" ry="3" style="stroke:#038048;stroke-width:1.0;"/><text fill="#000000" font-family="sans-serif" font-size="14" lengthAdjust="spacing" textLength="219" x="565.5" y="280.4583">visit(menuItem: MenuItem): void</text></g><!--class Visitor--><g id="elem_Visitor"><rect codeLine="64" fill="#F1F1F1" height="72.9766" id="Visitor" rx="2.5" ry="2.5" style="stroke:#181818;stroke-width:0.5;" width="231" x="575" y="7"/><ellipse cx="664.25" cy="23" fill="#B4A7E5" rx="11" ry="11" style="stroke:#181818;stroke-width:1.0;"/><path d="M660.6777,19.2651 L660.6777,17.1069 L668.0571,17.1069 L668.0571,19.2651 L665.5918,19.2651 L665.5918,27.3418 L668.0571,27.3418 L668.0571,29.5 L660.6777,29.5 L660.6777,27.3418 L663.1431,27.3418 L663.1431,19.2651 Z " fill="#000000"/><text fill="#000000" font-family="sans-serif" font-size="14" font-style="italic" lengthAdjust="spacing" textLength="44" x="684.75" y="28.291">Visitor</text><line style="stroke:#181818;stroke-width:0.5;" x1="576" x2="805" y1="39" y2="39"/><text fill="#000000" font-family="sans-serif" font-size="14" lengthAdjust="spacing" textLength="159" x="581" y="56.5352">visit(menu: Menu): void</text><text fill="#000000" font-family="sans-serif" font-size="14" lengthAdjust="spacing" textLength="219" x="581" y="73.0234">visit(menuItem: MenuItem): void</text></g><!--link Menu to MenuComponent--><g id="link_Menu_MenuComponent"><path codeLine="69" d="M212.72,597.58 C214.26,577.48 215.2244,562.7661 215.9244,543.2961 " fill="none" id="Menu-to-MenuComponent" style="stroke:#181818;stroke-width:1.0;"/><polygon fill="#181818" points="216.14,537.3,211.8192,546.1505,215.9604,542.2968,219.8141,546.4379,216.14,537.3" style="stroke:#181818;stroke-width:1.0;"/><text fill="#000000" font-family="sans-serif" font-size="13" lengthAdjust="spacing" textLength="6" x="210.4073" y="557.3845">*</text></g><!--reverse link MenuComponent to Menu--><g id="link_MenuComponent_Menu"><path codeLine="70" d="M189.3404,555.2261 C187.5704,574.6961 187.75,577.48 186.74,597.58 " fill="none" id="MenuComponent-backto-Menu" style="stroke:#181818;stroke-width:1.0;"/><polygon fill="none" points="190.97,537.3,183.365,554.6829,195.3157,555.7693,190.97,537.3" style="stroke:#181818;stroke-width:1.0;"/></g><!--reverse link MenuComponent to MenuItem--><g id="link_MenuComponent_MenuItem"><path codeLine="71" d="M395.6014,545.9754 C430.8514,565.3654 452.58,577.32 488.98,597.34 " fill="none" id="MenuComponent-backto-MenuItem" style="stroke:#181818;stroke-width:1.0;"/><polygon fill="none" points="379.83,537.3,392.7096,551.2325,398.4932,540.7183,379.83,537.3" style="stroke:#181818;stroke-width:1.0;"/></g><!--link Waitress to MenuComponent--><g id="link_Waitress_MenuComponent"><path codeLine="72" d="M209.5,271.4 C209.5,294.01 209.5,315.76 209.5,342.24 " fill="none" id="Waitress-to-MenuComponent" style="stroke:#181818;stroke-width:1.0;"/><polygon fill="#181818" points="209.5,348.24,213.5,339.24,209.5,343.24,205.5,339.24,209.5,348.24" style="stroke:#181818;stroke-width:1.0;"/></g><!--link VegetarianVisitor to MenuItem--><g id="link_VegetarianVisitor_MenuItem"><path codeLine="73" d="M691.29,287.78 C692.26,366.58 693.8465,495.1804 695.0265,591.5404 " fill="none" id="VegetarianVisitor-to-MenuItem" style="stroke:#181818;stroke-width:1.0;"/><polygon fill="#181818" points="695.1,597.54,698.9895,588.4917,695.0388,592.5404,690.9901,588.5897,695.1,597.54" style="stroke:#181818;stroke-width:1.0;"/><text fill="#000000" font-family="sans-serif" font-size="13" lengthAdjust="spacing" textLength="6" x="688.8044" y="586.8913">*</text></g><!--reverse link Visitor to VegetarianVisitor--><g id="link_Visitor_VegetarianVisitor"><path codeLine="74" d="M690.5,98.24 C690.5,120.13 690.5,130.78 690.5,156.53 " fill="none" id="Visitor-backto-VegetarianVisitor" style="stroke:#181818;stroke-width:1.0;stroke-dasharray:7.0,7.0;"/><polygon fill="none" points="690.5,80.24,684.5,98.24,696.5,98.24,690.5,80.24" style="stroke:#181818;stroke-width:1.0;"/></g><!--link MenuTestDrive to MenuComponent--><g id="link_MenuTestDrive_MenuComponent"><path codeLine="76" d="M419.58,72.15 C416.93,119.21 406.74,216.63 367.5,287.41 C355.51,309.04 343.6148,325.1459 326.4148,343.7359 " fill="none" id="MenuTestDrive-to-MenuComponent" style="stroke:#181818;stroke-width:1.0;stroke-dasharray:7.0,7.0;"/><polygon fill="#181818" points="322.34,348.14,331.3883,344.2504,325.7357,344.4699,325.5161,338.8173,322.34,348.14" style="stroke:#181818;stroke-width:1.0;"/><text fill="#000000" font-family="sans-serif" font-size="13" lengthAdjust="spacing" textLength="56" x="410.3" y="227.2584">allMenus</text></g><!--link MenuTestDrive to Waitress--><g id="link_MenuTestDrive_Waitress"><path codeLine="77" d="M386.52,72.07 C372.26,83.71 355.53,97.44 340.5,109.97 C315.87,130.51 293.3884,149.5203 270.2984,169.1803 " fill="none" id="MenuTestDrive-to-Waitress" style="stroke:#181818;stroke-width:1.0;stroke-dasharray:7.0,7.0;"/><polygon fill="#181818" points="265.73,173.07,275.1757,170.281,269.537,169.8286,269.9894,164.1898,265.73,173.07" style="stroke:#181818;stroke-width:1.0;"/><text fill="#000000" font-family="sans-serif" font-size="13" lengthAdjust="spacing" textLength="52" x="341.5" y="123.5384">waitress</text></g><!--link MenuTestDrive to VegetarianVisitor--><g id="link_MenuTestDrive_VegetarianVisitor"><path codeLine="78" d="M462.69,72.1 C497.17,94.66 542.2894,124.1946 586.7594,153.2946 " fill="none" id="MenuTestDrive-to-VegetarianVisitor" style="stroke:#181818;stroke-width:1.0;stroke-dasharray:7.0,7.0;"/><polygon fill="#181818" points="591.78,156.58,586.4393,148.3049,587.5962,153.8422,582.0589,154.999,591.78,156.58" style="stroke:#181818;stroke-width:1.0;"/></g><!--SRC=[rLN1Zjem43sJhnXnSWhX0oB4PVUoKgagjQA7gWUJp8ArSHpP9bK5_7l7XiG911MwfptXpBnvy_nc4hOYHq1PsJyWKQvHcoZA2cuCBB7SVKTZdxMe4VRHQB8tbbkH7K5oKJAkDoQ5RrQBSlFpLvn2hKGU7RlbuCgIaajiWFIOeycqgAnGPISg2VwaPALAB2tnVXR6pfVTu28Y2Ix2keHJ6E2B2SdpdFL8K-ZHDO974urIrNWdU8FsQIkAdBsb87oY1pmXlf105eVRkTXpaDbBLVHhMMZ0immhosfXX5KwXTNfCEZlYqNvWCSraWwk1QVWMga2UKbH4f1HRQvswmBF5ZlYVziyXG76AVG8uySTeTHNH-62hIfXLcqlbsZr_xU1FxYm6kdW3UH5uIvkBkT9X0sGtS34ZGY_d9q-V6sivfc5CB6so7VzC4lwpf7i6oUESEzq0lKPuQSKzirjQFSpuPuNqOYQNLMoymwk-iLEtsNvnEloBfyy2tS86OTDs_UlevmkZVgLPzZSoW_v9kKTZFuZcYGB67yQN-nFr7-S7vB48sx57NFKxhpZxE_4jU7TlhwwISmFizdrW4vgmp_6R7RH0b9etg01Q2ijXT_dum3gMkLV]--></g></svg>